<svg id="bugerBoy" xmlns="http://www.w3.org/2000/svg" viewBox="0 0 340.8 349.7">
  <defs>
    <style>
      .cls-1 {
        fill: #222;
      }
    </style>
  </defs>
  <title>burgerBoy</title>
  <g id="burgerBoy-dark">
    <path class="cls-1" d="M1314.1-300.9a7.3,7.3,0,0,0-5.5-4.8c-5.1-1-13.2-3.5-22.9-9.5a92.2,92.2,0,0,1-31.8-34.3,192.9,192.9,0,0,1-16.3-41.3,7.5,7.5,0,0,0-4.9-5.2,7.5,7.5,0,0,0-7.1,1.3c-6.6,5.5-16.4,14.8-29.1,27.9l-3.3-1.7a12.3,12.3,0,0,0-14.9,2.9l-18.4,21.2h-.7a131.2,131.2,0,0,0-78.5,13.7,40.4,40.4,0,0,0-25.7,32.7,40.9,40.9,0,0,0,7.7,30.2l-2.4,3.3a39.6,39.6,0,0,1-9-24.7c-13.9,3.1-25.7,14.1-29.7,29.3a41.8,41.8,0,0,0,.3,22.5c-22.1,12.6-38.1,32.3-44.8,56.3-7.3,26-2.7,53.6,13,77.7s40,41.7,69.1,49.8h.4l3.8,1.1a157.6,157.6,0,0,0,42.4,5.8,154.5,154.5,0,0,0,74-18.9,149.5,149.5,0,0,0,51.4-46.2,27,27,0,0,0,4.9,1.2l3.6.2a26.9,26.9,0,0,0,16.3-5.5,26.6,26.6,0,0,0,10.3-17.7,26.8,26.8,0,0,0-1.1-12,150.3,150.3,0,0,0,10.4-38.3,148.5,148.5,0,0,0-2.6-54.6l22.1-25.5h0a12.2,12.2,0,0,0,2-13,227.1,227.1,0,0,0,15.7-16.8A7.5,7.5,0,0,0,1314.1-300.9Zm-22.8,33.6-19.7,22.8-.2-.2c-14.2-49.9-54-89.1-105.7-98.8l16.4-18.8a7.2,7.2,0,0,1,8.8-1.8l7.5,4c3.6,2,7.2,4.1,10.6,6.2,5,3.1,9.7,6.3,14.3,9.5a311.8,311.8,0,0,1,49.5,44.7c4.6,5.2,8.6,10,11.9,14.1s5.2,6.7,7,9.3a6.1,6.1,0,0,1,.7,1A7.2,7.2,0,0,1,1291.3-267.3Zm-30,133a20.9,20.9,0,0,1-8.4,14.4,21.4,21.4,0,0,1-16.2,4.3l-2.6-.5a18.4,18.4,0,0,1-2.5-.9,12.8,12.8,0,0,1-2.4-1.1,22,22,0,0,1-9.8-10.8,2.1,2.1,0,0,0-1.9-1.5,2,2,0,0,0-1.3.1,2.5,2.5,0,0,0-1.4,3.3,27,27,0,0,0,11.6,13.1c-27.2,38.7-72.5,62.2-121,62.2a151.8,151.8,0,0,1-36.4-4.5h.1l-4.4-1.1-3.9-1c-28-7.8-51.7-24.8-66.5-47.8s-19.3-49.1-12.4-73.6c6.3-22.5,21.2-41,41.8-53a105.7,105.7,0,0,1,29.8-11.6l1.2-.3.5-1.1a105.1,105.1,0,0,1,8.5-15.1l2.3-3.1a37,37,0,0,0,21.5,10.8h.4c2.8.4,5.4.9,7.8,1.4l1.2.3c28.2,6.1,34.9,16.1,34.9,16.1-4.1-23.5,3.9-34.4,3.9-34.4,3.1,19.2,42.8,19.4,42.8,19.4,25.7,3.5,31,16.8,30.7,27.9a33.5,33.5,0,0,1-8.4,21.1c-27.8,31.4-2.4,62.8-2.4,62.8,4.8-25.3,18.2-34,29-36.7a4,4,0,0,1,5,4.1c-.2,2.2-.3,4.4-.4,5.2s-.3,2-.5,3a26.5,26.5,0,0,0-12.2,8.2,2.5,2.5,0,0,0,.2,3.5,3.1,3.1,0,0,0,1.3.6,2.6,2.6,0,0,0,2.3-.9,22,22,0,0,1,7.3-5.6,22.2,22.2,0,0,1,12.2-1.8,23.7,23.7,0,0,1,4.6,1.1l2.3,1,2.2,1.3a21.9,21.9,0,0,1,9.8,17.9A18.3,18.3,0,0,1,1261.3-134.3Zm33-147c-13.2-17.8-45.4-56.4-93-82.9l-.2-.2c15-15.3,23.3-22.8,27.7-26.4a2.4,2.4,0,0,1,2.3-.5,2.4,2.4,0,0,1,1.6,1.8,201.4,201.4,0,0,0,16.8,42.4,95.8,95.8,0,0,0,33.6,36.1c10.3,6.4,19,9.1,24.5,10.2a2.6,2.6,0,0,1,1.8,1.6,2.3,2.3,0,0,1-.5,2.2A210.2,210.2,0,0,1,1294.3-281.3Z" transform="translate(-973.7 396.4)"/>
    <path class="cls-1" d="M1247.2-139l.9-.8a2.4,2.4,0,0,0,0-3.5l-.3-.3a2.5,2.5,0,0,0-2.6-.2,1.5,1.5,0,0,0-.6.5l-2.5,2.4-1.3,1.3-.5.5-4-4.1h-.2a2.6,2.6,0,0,0-2-.8,2.2,2.2,0,0,0-1.5.8,2.4,2.4,0,0,0,0,3.5l4.2,4.2-4.2,4.2a2.4,2.4,0,0,0,0,3.5,2.5,2.5,0,0,0,1.8.8h.3a2.1,2.1,0,0,0,1.4-.7l3.8-3.7.4-.5,1.8,1.7,2.5,2.5a2.3,2.3,0,0,0,1.7.8,2.5,2.5,0,0,0,1.8-.8,2.4,2.4,0,0,0,0-3.5l-3.8-3.8-.4-.4,1.1-1.1Z" transform="translate(-973.7 396.4)"/>
    <path class="cls-1" d="M1055.6-190.2a8.4,8.4,0,0,0,11.4-3.6,7.5,7.5,0,0,0,.6-1.3h0a62.6,62.6,0,0,1,4.7-11.9,55,55,0,0,1,6.1-9.5,62.5,62.5,0,0,1,11.3-11.1l1.4-1.1h0a8.7,8.7,0,0,0,3-3.3,9.3,9.3,0,0,0,.7-5.9,9,9,0,0,0-4.3-5.5,9.1,9.1,0,0,0-4.5-.9h0c-8.2.4-16.3,9.2-22.1,17.7l4.5,6.9-9,.5h0a10.9,10.9,0,0,0-.8,1.5c-1,1.9-2.2,4.5-3.4,7.4a91.9,91.9,0,0,0-3.7,9.8h.1A8.5,8.5,0,0,0,1055.6-190.2Z" transform="translate(-973.7 396.4)"/>
    <path class="cls-1" d="M1169.5-223.5a9.4,9.4,0,0,0-5.4-1.1h0c-9.8.5-19.7,11.2-26.6,21.4l5.4,8.3-10.8.6h-.1l-.9,1.8a153.5,153.5,0,0,0-8.6,20.7h.1a10.2,10.2,0,0,0,5,12.4,10.1,10.1,0,0,0,13.7-4.3,4.4,4.4,0,0,0,.6-1.6h.1a72.7,72.7,0,0,1,5.6-14.4,73,73,0,0,1,22.7-26.1h0a10.4,10.4,0,0,0,3.6-3.9A10.1,10.1,0,0,0,1169.5-223.5Z" transform="translate(-973.7 396.4)"/>
    <path class="cls-1" d="M1071.2-187.3a16.3,16.3,0,0,0-7.6,11.6,16.2,16.2,0,0,0,4.2,13.3,22.1,22.1,0,0,0,13.2,6.9l3.1.2a20.6,20.6,0,0,0,14.6-5.8,2.6,2.6,0,0,0,0-3.6,3,3,0,0,0-1.9-.7,2.8,2.8,0,0,0-1.7.7,15.7,15.7,0,0,1-13.4,4.2,16.3,16.3,0,0,1-10.1-5.2,11.8,11.8,0,0,1-3.1-9.3,11.3,11.3,0,0,1,5.4-8.1,16.5,16.5,0,0,1,11.2-2.4,17.3,17.3,0,0,1,8.9,4,2.1,2.1,0,0,0,1.8.6,2.3,2.3,0,0,0,1.7-.8,2.5,2.5,0,0,0-.2-3.5,21.7,21.7,0,0,0-11.5-5.2A21.4,21.4,0,0,0,1071.2-187.3Z" transform="translate(-973.7 396.4)"/>
    <path class="cls-1" d="M1156.2-83a31,31,0,0,1-22.9-10.8,30.5,30.5,0,0,1-7.3-22.6,30.5,30.5,0,0,1,10.7-21,2.5,2.5,0,0,0,.3-3.6,2.5,2.5,0,0,0-3.5-.2A36,36,0,0,0,1122-123c-19.8,2.1-54,.1-78.5-30.3-6.9-8.4-18.8-9.2-26.6-1.2l-.9.9c-9.3,10.4-9.7,26.6-1.6,37.6,15,20.2,51.4,52.7,121.5,31.3a35.7,35.7,0,0,0,20.2,6.7h.1a2.5,2.5,0,0,0,2.5-2.5A2.5,2.5,0,0,0,1156.2-83Zm-46.9-.4c-55.4,4.9-76.5-20.2-81.9-25.5a21,21,0,0,1,9.6-9.2c7.8-3.6,18.1-3,30.7,1.7a62.7,62.7,0,0,0-18.2,8.2,2.2,2.2,0,0,0-.5,2.9,2,2,0,0,0,2.8.6c.2-.2,19.8-13.7,38.5-7.8,11,3.4,19.6,12.8,25.7,27.7A30.7,30.7,0,0,1,1109.3-83.4Z" transform="translate(-973.7 396.4)"/>
    <path class="cls-1" d="M1146.1-105.3a4.1,4.1,0,0,0-3.5-4.6,4,4,0,0,0-4.6,3.5,4.1,4.1,0,0,0,3.5,4.6A4.1,4.1,0,0,0,1146.1-105.3Z" transform="translate(-973.7 396.4)"/>
    <path class="cls-1" d="M1155.3-126.1a4.1,4.1,0,0,0-4.6,3.5,4.2,4.2,0,0,0,3.5,4.7,4.2,4.2,0,0,0,4.7-3.6A4.1,4.1,0,0,0,1155.3-126.1Z" transform="translate(-973.7 396.4)"/>
    <path class="cls-1" d="M1165.9-108.4a4.1,4.1,0,0,0-4.6,3.5,4.1,4.1,0,0,0,3.5,4.6,4,4,0,0,0,4.7-3.5A4.1,4.1,0,0,0,1165.9-108.4Z" transform="translate(-973.7 396.4)"/>
    <circle class="cls-1" cx="1001.4" cy="-170.3" r="4.1" transform="translate(-151 1226.1) rotate(-70.2)"/>
    <circle class="cls-1" cx="1003.4" cy="-190.8" r="4.1" transform="translate(-130.5 1214.3) rotate(-70.2)"/>
    <path class="cls-1" d="M1023.6-178a4,4,0,0,0,2-5.4,4.1,4.1,0,0,0-5.5-2,4.1,4.1,0,0,0-1.9,5.5A4,4,0,0,0,1023.6-178Z" transform="translate(-973.7 396.4)"/>
  </g>
</svg>
