<svg id="Camada_11" data-name="Camada 11" xmlns="http://www.w3.org/2000/svg" viewBox="0 0 103.8 54.9"><defs><style>.cls-1{fill:#ea5158;}.cls-2{fill:#f5f5f5;}.cls-3{fill:#ce3c4e;}</style></defs><title>alface</title><g id="alface"><path class="cls-1" d="M250.7,781l-2.1-1a12.3,12.3,0,0,1-2.5-1.7c-1.6-1.1-3.1-2.3-5-2.6a10.2,10.2,0,0,0-4.1.6,17,17,0,0,1-4.5.8,19.2,19.2,0,0,1-4-.9,12.6,12.6,0,0,0-4.6-.7A10.5,10.5,0,0,0,220,777a16.1,16.1,0,0,1-4.3,1.7,12.5,12.5,0,0,1-4.3-.1,10.8,10.8,0,0,0-4.4,0,10.3,10.3,0,0,0-3.7,2,12.9,12.9,0,0,1-3.9,2.3,17.4,17.4,0,0,1-4.5.6,8.4,8.4,0,0,0-7.8,3.2,12.3,12.3,0,0,1-3.4,2.6,16.9,16.9,0,0,1-4.4,1.2,9.8,9.8,0,0,0-4,1.1,10.5,10.5,0,0,0-3.2,3.4,16.1,16.1,0,0,1-2.8,3,17.1,17.1,0,0,1-4,2.1,10.7,10.7,0,0,0-3.7,1.9,12,12,0,0,0-2.4,5.1,16.3,16.3,0,0,1-1,2.9l-1.2,2.1c-1.2,2.2-2.2,4-1.7,5.7s2.5,2.5,4.8,3.5l2.1,1a19.2,19.2,0,0,1,2.6,1.7,11.1,11.1,0,0,0,5,2.7,10.5,10.5,0,0,0,4.1-.6,16.3,16.3,0,0,1,4.5-.8,14.2,14.2,0,0,1,4,.8,12.4,12.4,0,0,0,4.6.8,13.6,13.6,0,0,0,3.9-1.5,13,13,0,0,1,4.2-1.8,20.6,20.6,0,0,1,4.3.1,13.7,13.7,0,0,0,4.5.1,13.5,13.5,0,0,0,3.6-2.1,16,16,0,0,1,4-2.3,13.5,13.5,0,0,1,4.5-.5,13.8,13.8,0,0,0,4.2-.5,12.7,12.7,0,0,0,3.5-2.7,16.8,16.8,0,0,1,3.4-2.7,14.1,14.1,0,0,1,4.5-1.1,14.5,14.5,0,0,0,4-1.1,13,13,0,0,0,3.2-3.4,11.9,11.9,0,0,1,2.8-3.1,15,15,0,0,1,4-2,11.8,11.8,0,0,0,3.7-2c1.3-1.4,1.8-3.3,2.4-5.1a24.7,24.7,0,0,1,1-2.9l1.1-2.1c1.2-2.1,2.3-4,1.7-5.7S253,782,250.7,781ZM238,786.6l-4.6,1.8-4.6,1.7-4.6,1.7h-.4a15.9,15.9,0,0,0-1.3,1.3l-.9,1-.4.6-.4.5c-.6.7-1.1,1.5-1.6,2.2l-1.6,2.4a20.3,20.3,0,0,1,1.1-2.6,25.2,25.2,0,0,1,1.5-2.4,13.4,13.4,0,0,1,2-2.1l.7-.6-3.3,1.2-4.7,1.6-9.3,3.1-6.7,2.2-1.2,1.1-.9,1.1-.4.5-.4.5-1.6,2.3a18.8,18.8,0,0,0-1.6,2.3,20.3,20.3,0,0,1,1.1-2.6l1.5-2.4a18,18,0,0,1,1.9-2l.7-.6-1.7.6-9.4,2.9c-6.2,1.8-12.5,3.7-18.8,5.3l18.5-6.4.6-.2h-.8l-2.6-.7c-.8-.4-1.7-.7-2.5-1.2a7.2,7.2,0,0,1-2-1.9,10.9,10.9,0,0,0,2.3,1.4l.6.3.6.2,1.2.5,2.5.9,1.4.4,8-2.7,9.3-3,5.2-1.7-.9-.2a11.1,11.1,0,0,1-2.6-.7,11.5,11.5,0,0,1-2.5-1.2,7.2,7.2,0,0,1-2-1.9,10.9,10.9,0,0,0,2.3,1.4l.6.3.6.3,1.2.5,2.5.8,1.5.5,12.8-4.2,18.6-6.1Z" transform="translate(-153.5 -773.7)"/><path class="cls-2" d="M251.3,779.4l-2-.9-2.3-1.6a13.4,13.4,0,0,0-5.7-2.9c-1.6-.3-3.1.2-4.8.6a14.2,14.2,0,0,1-4,.8,18.2,18.2,0,0,1-3.6-.8,13.4,13.4,0,0,0-5.3-.8,10.9,10.9,0,0,0-4.4,1.7,13.7,13.7,0,0,1-3.8,1.5,12.3,12.3,0,0,1-3.8-.1,14.6,14.6,0,0,0-5.1,0,12.7,12.7,0,0,0-4.2,2.4,12.2,12.2,0,0,1-3.5,2,16.2,16.2,0,0,1-4,.5,12.9,12.9,0,0,0-4.8.6,12.7,12.7,0,0,0-4,3,12.6,12.6,0,0,1-3,2.4,13.1,13.1,0,0,1-4,1,12.2,12.2,0,0,0-4.6,1.3,14.9,14.9,0,0,0-3.7,3.8,9.1,9.1,0,0,1-2.4,2.7,15.5,15.5,0,0,1-3.6,1.9,11.8,11.8,0,0,0-4.3,2.3c-1.6,1.7-2.2,3.9-2.8,5.8a13.1,13.1,0,0,1-.9,2.6,12.8,12.8,0,0,1-1.1,2c-1.3,2.4-2.6,4.7-1.8,7.1s3.2,3.5,5.7,4.6l2.1.9,2.3,1.6c1.6,1.2,3.4,2.6,5.7,2.9a10.3,10.3,0,0,0,4.8-.6,14,14,0,0,1,4-.7,12.7,12.7,0,0,1,3.6.7,15.4,15.4,0,0,0,5.2.9,15.4,15.4,0,0,0,4.5-1.7,11.9,11.9,0,0,1,3.7-1.6,17.2,17.2,0,0,1,3.9.1,14,14,0,0,0,5,0h.4a17.9,17.9,0,0,0,3.8-2.2A13,13,0,0,1,212,821a13.3,13.3,0,0,1,4.1-.4,12.5,12.5,0,0,0,4.7-.7,13.1,13.1,0,0,0,4.1-3,16.6,16.6,0,0,1,3-2.4,15.9,15.9,0,0,1,3.9-1,11.7,11.7,0,0,0,4.6-1.3,12.2,12.2,0,0,0,3.7-3.8,16.4,16.4,0,0,1,2.4-2.7,15.9,15.9,0,0,1,3.7-1.8,13.2,13.2,0,0,0,4.2-2.4,12.5,12.5,0,0,0,2.8-5.8,15.7,15.7,0,0,1,1-2.6c.3-.7.7-1.3,1-2,1.4-2.4,2.7-4.7,1.9-7.1S253.9,780.6,251.3,779.4Zm2.5,10.8-1.1,2.1a24.7,24.7,0,0,0-1,2.9c-.6,1.8-1.1,3.7-2.4,5.1a11.8,11.8,0,0,1-3.7,2,15,15,0,0,0-4,2,11.9,11.9,0,0,0-2.8,3.1,13,13,0,0,1-3.2,3.4,14.5,14.5,0,0,1-4,1.1,14.1,14.1,0,0,0-4.5,1.1,16.8,16.8,0,0,0-3.4,2.7,12.7,12.7,0,0,1-3.5,2.7,13.8,13.8,0,0,1-4.2.5,13.5,13.5,0,0,0-4.5.5,16,16,0,0,0-4,2.3,13.5,13.5,0,0,1-3.6,2.1,13.7,13.7,0,0,1-4.5-.1,20.6,20.6,0,0,0-4.3-.1,13,13,0,0,0-4.2,1.8,13.6,13.6,0,0,1-3.9,1.5,12.4,12.4,0,0,1-4.6-.8,14.2,14.2,0,0,0-4-.8,16.3,16.3,0,0,0-4.5.8,10.5,10.5,0,0,1-4.1.6,11.1,11.1,0,0,1-5-2.7,19.2,19.2,0,0,0-2.6-1.7l-2.1-1c-2.3-1-4.2-1.8-4.8-3.5s.5-3.5,1.7-5.7l1.2-2.1a16.3,16.3,0,0,0,1-2.9,12,12,0,0,1,2.4-5.1,10.7,10.7,0,0,1,3.7-1.9,17.1,17.1,0,0,0,4-2.1,16.1,16.1,0,0,0,2.8-3,10.5,10.5,0,0,1,3.2-3.4,9.8,9.8,0,0,1,4-1.1,16.9,16.9,0,0,0,4.4-1.2,12.3,12.3,0,0,0,3.4-2.6,8.4,8.4,0,0,1,7.8-3.2,17.4,17.4,0,0,0,4.5-.6,12.9,12.9,0,0,0,3.9-2.3,10.3,10.3,0,0,1,3.7-2,10.8,10.8,0,0,1,4.4,0,12.5,12.5,0,0,0,4.3.1A16.1,16.1,0,0,0,220,777a10.5,10.5,0,0,1,3.9-1.5,12.6,12.6,0,0,1,4.6.7,19.2,19.2,0,0,0,4,.9,17,17,0,0,0,4.5-.8,10.2,10.2,0,0,1,4.1-.6c1.9.3,3.4,1.5,5,2.6a12.3,12.3,0,0,0,2.5,1.7l2.1,1c2.3,1,4.3,1.9,4.8,3.5S255,788.1,253.8,790.2Z" transform="translate(-153.5 -773.7)"/><path class="cls-3" d="M223.9,790.7l-12.8,4.2,1,.3h-1.7l-5.2,1.7-9.3,3-8,2.7,1.1.4-1.8-.2-.6.2-18.5,6.4c6.3-1.6,12.6-3.5,18.8-5.3l9.4-2.9,1.7-.6,1.6-1-.7.8,6.7-2.2,9.3-3.1,4.7-1.6,3.3-1.2a8.3,8.3,0,0,1,1.6-.9l-.7.6h.4l4.6-1.7,4.6-1.7,4.6-1.8,4.5-2Z" transform="translate(-153.5 -773.7)"/><path class="cls-3" d="M186.5,802.1l-2.5-.9-1.2-.5-.6-.2-.6-.3a10.9,10.9,0,0,1-2.3-1.4,7.2,7.2,0,0,0,2,1.9c.8.5,1.7.8,2.5,1.2l2.6.7h.8l.7-.2Z" transform="translate(-153.5 -773.7)"/><path class="cls-3" d="M187.9,802.5l-.7.2,1.8.2Z" transform="translate(-153.5 -773.7)"/><path class="cls-3" d="M209.6,794.4l-2.5-.8-1.2-.5-.6-.3-.6-.3a10.9,10.9,0,0,1-2.3-1.4,7.2,7.2,0,0,0,2,1.9,11.5,11.5,0,0,0,2.5,1.2,11.1,11.1,0,0,0,2.6.7l.9.2.7-.2Z" transform="translate(-153.5 -773.7)"/><path class="cls-3" d="M211.1,794.9l-.7.2h1.7Z" transform="translate(-153.5 -773.7)"/><path class="cls-3" d="M197.3,801.1a18,18,0,0,0-1.9,2l-1.5,2.4a20.3,20.3,0,0,0-1.1,2.6,18.8,18.8,0,0,1,1.6-2.3l1.6-2.3.4-.5.4-.5.9-1.1,1.2-1.1-.9.2Z" transform="translate(-153.5 -773.7)"/><path class="cls-3" d="M198,800.5l.9-.2.7-.8Z" transform="translate(-153.5 -773.7)"/><path class="cls-3" d="M222.2,792.8a13.4,13.4,0,0,0-2,2.1,25.2,25.2,0,0,0-1.5,2.4,20.3,20.3,0,0,0-1.1,2.6l1.6-2.4c.5-.7,1-1.5,1.6-2.2l.4-.5.4-.6.9-1a15.9,15.9,0,0,1,1.3-1.3l-.9.3Z" transform="translate(-153.5 -773.7)"/><path class="cls-3" d="M222.9,792.2l.9-.3.7-.6A8.3,8.3,0,0,0,222.9,792.2Z" transform="translate(-153.5 -773.7)"/></g></svg>