<svg id="Camada_11" data-name="Camada 11" xmlns="http://www.w3.org/2000/svg" viewBox="0 0 102 55.2"><defs><style>.cls-1{fill:#ea5158;}.cls-2{fill:#f5f5f5;}.cls-3{fill:#ce3c4e;}</style></defs><title>carne</title><g id="carne"><path class="cls-1" d="M247.5,734a26.8,26.8,0,0,1-4.3.5l-3.1-.6a23,23,0,0,0-2.8-.6.7.7,0,0,1-.7-.9.9.9,0,0,1,.9-.8,22.7,22.7,0,0,1,3,.6,10.4,10.4,0,0,0,2.8.5,15.3,15.3,0,0,0,3.8-.4l1.9-.4c1.6-.2,4.6-.5,4.8-1.2s-.6-3.1-12.6-8.7l-3.5-1.7a110.3,110.3,0,0,0-11.7-5.1c-3-1-6.2-1.8-9.6-2.6L210,711l-6.4-1.9a98.8,98.8,0,0,0-9.6-2.6,89.9,89.9,0,0,0-12.7-1.6l-3.8-.3c-13.1-1.3-15,.3-15.3,1a1.3,1.3,0,0,1,.1.6c.4,1.1,2.8,3.5,12.5,8.1l3.5,1.7a93,93,0,0,0,11.7,5.1c3,1,6.2,1.8,9.6,2.6l6.4,1.6a5.3,5.3,0,0,1,1.5.8,1.5,1.5,0,0,0,.8.5,2,2,0,0,0,1.1,0,4.3,4.3,0,0,1,1.6,0,7.1,7.1,0,0,1,1.5.8l.8.5h0a.9.9,0,0,1,.7,1.1,1,1,0,0,1-1.1.6,4.4,4.4,0,0,1-1.5-.8l-.8-.5h-1a3.3,3.3,0,0,1-1.7,0h0a4.4,4.4,0,0,1-1.5-.8l-.8-.5-6.4-1.6a93.4,93.4,0,0,1-9.8-2.7,96.2,96.2,0,0,1-11.9-5.2l-3.4-1.6c-7.1-3.3-11.2-5.9-12.8-8l-.7.9a21.7,21.7,0,0,0-1.5,2.2,17.7,17.7,0,0,0-.8,3.1,14.1,14.1,0,0,1-.6,2.2c-.3.9-.7,1.8-1,2.5a8.1,8.1,0,0,0-1,2.5,8.8,8.8,0,0,0,.2,4,5.9,5.9,0,0,0,.2,1.3,12.8,12.8,0,0,1,0,2.8c0,1,0,1.1,1.1,2a19.4,19.4,0,0,0,4.9,2.7l3.2,1.5,3,1.7a28.4,28.4,0,0,0,5.2,2.7,27.7,27.7,0,0,0,4.6,1.4l4.4,1.2,3.8,1.7a47.8,47.8,0,0,0,4.8,1.9,35.6,35.6,0,0,0,4.7,1,36.3,36.3,0,0,1,4.5,1l4.3,1.4a27.4,27.4,0,0,0,4.6,1.5,43.3,43.3,0,0,0,5,.8c1.4.2,2.9.3,4.2.6s3,.7,4.4,1.1a32.5,32.5,0,0,0,4.7,1.2,39.5,39.5,0,0,0,5.9.3h3.4l3.5.3a18.2,18.2,0,0,0,5.6.2h.1c1.5-.1,1.5-.1,2-1.2l1.3-2.1.8-1.1a9.9,9.9,0,0,0,2.1-3.5,17,17,0,0,0,.3-2.6,13.7,13.7,0,0,1,.2-2.8,19.5,19.5,0,0,1,.6-2.3,10.9,10.9,0,0,0,.8-3.1,24.6,24.6,0,0,0-.2-2.6c-.1-.5-.1-1.1-.2-1.6a14.5,14.5,0,0,1-4.5.8Zm-78-.3h-.2l-.8-.4L166,732l-1.5-.4-2.3-.7a6.9,6.9,0,0,1-1.8-1.6,5.3,5.3,0,0,0-1.2-1,.6.6,0,0,1-.1-.8.5.5,0,0,1,.7-.1,7.4,7.4,0,0,1,1.3,1.2,6.5,6.5,0,0,0,1.6,1.3,4.7,4.7,0,0,0,2,.6,12.7,12.7,0,0,1,1.8.6l2.4,1.1.7.4c.3.1.7.3.6.8A.6.6,0,0,1,169.5,733.7Zm32.5,0h-.3l-1.8-.8-1.6-.8-1.9-.2a4.4,4.4,0,0,1-2-.3l-2.7-.9-.8-.3h-.3a.7.7,0,0,1-.2-.7c.2-.5.6-.3.9-.2l.7.2,2.7,1,1.8.2,2.1.2a7.6,7.6,0,0,1,1.8.9,8.3,8.3,0,0,0,1.8.7.6.6,0,0,1,.4.6A.6.6,0,0,1,202,733.7ZM195.2,718l-4.7-3.2A41.1,41.1,0,0,1,186,711a32.2,32.2,0,0,1-3.9-4.3,32.6,32.6,0,0,1,5.3,2.6,49.8,49.8,0,0,1,4.7,3.3,51.9,51.9,0,0,1,4.5,3.7,27.8,27.8,0,0,1,3.9,4.4A33,33,0,0,1,195.2,718Zm18.3,5-4.8-3.2a52,52,0,0,1-4.4-3.8,26.6,26.6,0,0,1-3.9-4.3,31.6,31.6,0,0,1,5.2,2.6,40.7,40.7,0,0,1,4.8,3.3,50.7,50.7,0,0,1,4.4,3.7,28.3,28.3,0,0,1,4,4.4A33,33,0,0,1,213.5,723Zm11.6,28.4h-.3l-.9-.2-2.6-.5h-1.6a6.5,6.5,0,0,1-2.4-.2h0a6.8,6.8,0,0,1-2.1-1l-1.4-.8a.5.5,0,0,1,.3-.9,8,8,0,0,1,1.6.8,5.5,5.5,0,0,0,1.9.9,6.8,6.8,0,0,0,2,.2,4,4,0,0,1,1.9.1l2.6.5h.8c.3.1.8.2.7.7A.5.5,0,0,1,225.1,751.4Zm-2.3-21.2a.9.9,0,0,1,1-.7,1.9,1.9,0,0,1,1.1.8h.1a1.9,1.9,0,0,1,1.3-.3,3,3,0,0,1,1.1.7v.2a1,1,0,0,1,.6,1,.8.8,0,0,1-1,.7,3,3,0,0,1-1.1-.7h-.1a2.5,2.5,0,0,1-1.3.4.1.1,0,0,0-.1-.1,1.6,1.6,0,0,1-.9-.7l-.2-.2A.9.9,0,0,1,222.8,730.2Zm9-2.2a57.2,57.2,0,0,1-4.8-3.2,52,52,0,0,1-4.4-3.8,32.8,32.8,0,0,1-4-4.3,32.6,32.6,0,0,1,5.3,2.6,59.7,59.7,0,0,1,9.2,7,23.6,23.6,0,0,1,3.9,4.4A32,32,0,0,1,231.8,728Z" transform="translate(-153.8 -702.4)"/><path class="cls-2" d="M223.4,731.2l.2.2a1.6,1.6,0,0,0,.9.7.1.1,0,0,1,.1.1,2.5,2.5,0,0,0,1.3-.4h.1a3,3,0,0,0,1.1.7.8.8,0,0,0,1-.7,1,1,0,0,0-.6-1v-.2a3,3,0,0,0-1.1-.7,1.9,1.9,0,0,0-1.3.3h-.1a1.9,1.9,0,0,0-1.1-.8.9.9,0,0,0-1,.7A.9.9,0,0,0,223.4,731.2Z" transform="translate(-153.8 -702.4)"/><path class="cls-2" d="M161.9,705.2c.1.1.3.3.3.4s2.2-2.3,15.3-1l3.8.3a89.9,89.9,0,0,1,12.7,1.6,98.8,98.8,0,0,1,9.6,2.6L210,711l6.4,1.6c3.4.8,6.6,1.6,9.6,2.6a110.3,110.3,0,0,1,11.7,5.1l3.5,1.7c12,5.6,12.8,7.9,12.6,8.7s-3.2,1-4.8,1.2l-1.9.4a15.3,15.3,0,0,1-3.8.4,10.4,10.4,0,0,1-2.8-.5,22.7,22.7,0,0,0-3-.6.9.9,0,0,0-.9.8.7.7,0,0,0,.7.9,23,23,0,0,1,2.8.6l3.1.6a26.8,26.8,0,0,0,4.3-.5l1.7-.4a14.5,14.5,0,0,0,4.5-.8v-1.4a.9.9,0,0,1,.9-.8.8.8,0,0,1,.8.7v-.2c.8-2.7-3.3-5.9-13.5-10.7l-3.4-1.6a96.2,96.2,0,0,0-11.9-5.2,93.4,93.4,0,0,0-9.8-2.7l-6.4-1.6-6.2-1.8a87,87,0,0,0-9.9-2.7,92.5,92.5,0,0,0-12.9-1.6l-3.7-.3c-11.3-1.1-16.4-.4-17.1,2.3a1.7,1.7,0,0,0-.1.7l.2-.3A1,1,0,0,1,161.9,705.2Z" transform="translate(-153.8 -702.4)"/><path class="cls-2" d="M177.5,717.5a96.2,96.2,0,0,0,11.9,5.2,93.4,93.4,0,0,0,9.8,2.7l6.4,1.6.8.5a4.4,4.4,0,0,0,1.5.8h0a3.3,3.3,0,0,0,1.7,0h1l.8.5a4.4,4.4,0,0,0,1.5.8,1,1,0,0,0,1.1-.6.9.9,0,0,0-.7-1.1h0l-.8-.5a7.1,7.1,0,0,0-1.5-.8,4.3,4.3,0,0,0-1.6,0,2,2,0,0,1-1.1,0,1.5,1.5,0,0,1-.8-.5,5.3,5.3,0,0,0-1.5-.8l-6.4-1.6c-3.4-.8-6.6-1.6-9.6-2.6a93,93,0,0,1-11.7-5.1l-3.5-1.7c-9.7-4.6-12.1-7-12.5-8.1v.2l-.9,1.5c1.6,2.1,5.7,4.7,12.8,8Z" transform="translate(-153.8 -702.4)"/><path class="cls-2" d="M162.2,705.6a1.3,1.3,0,0,0,.1.6,1.3,1.3,0,0,0-.1-.6Z" transform="translate(-153.8 -702.4)"/><path class="cls-2" d="M254.4,742.6c.1-.6.4-1.2.6-2a16.4,16.4,0,0,0,.8-3.5,9.7,9.7,0,0,0-.2-2.9,24.5,24.5,0,0,1-.2-2.7v-.2a2.4,2.4,0,0,1-1.7,1.5c.1.5.1,1.1.2,1.6a24.6,24.6,0,0,1,.2,2.6,10.9,10.9,0,0,1-.8,3.1,19.5,19.5,0,0,0-.6,2.3,13.7,13.7,0,0,0-.2,2.8,17,17,0,0,1-.3,2.6,9.9,9.9,0,0,1-2.1,3.5l-.8,1.1-1.3,2.1c-.5,1.1-.5,1.1-2,1.2h-.1a18.2,18.2,0,0,1-5.6-.2l-3.5-.3h-3.4a39.5,39.5,0,0,1-5.9-.3,32.5,32.5,0,0,1-4.7-1.2c-1.4-.4-2.8-.8-4.4-1.1s-2.8-.4-4.2-.6a43.3,43.3,0,0,1-5-.8,27.4,27.4,0,0,1-4.6-1.5l-4.3-1.4a36.3,36.3,0,0,0-4.5-1,35.6,35.6,0,0,1-4.7-1,47.8,47.8,0,0,1-4.8-1.9l-3.8-1.7-4.4-1.2a27.7,27.7,0,0,1-4.6-1.4,28.4,28.4,0,0,1-5.2-2.7l-3-1.7-3.2-1.5a19.4,19.4,0,0,1-4.9-2.7c-1.1-.9-1.1-1-1.1-2a12.8,12.8,0,0,0,0-2.8,5.9,5.9,0,0,1-.2-1.3,8.8,8.8,0,0,1-.2-4,8.1,8.1,0,0,1,1-2.5c.3-.7.7-1.6,1-2.5a14.1,14.1,0,0,0,.6-2.2,17.7,17.7,0,0,1,.8-3.1,21.7,21.7,0,0,1,1.5-2.2l.7-.9a3.7,3.7,0,0,1-.8-2,14,14,0,0,1-1.3,1.8,18.3,18.3,0,0,0-1.6,2.6,12.4,12.4,0,0,0-1,3.5c-.2.7-.3,1.3-.5,1.9a16,16,0,0,1-1,2.3,10,10,0,0,0-1.1,3,11.6,11.6,0,0,0,.1,4.6,5,5,0,0,1,.2,1.2c.1,1.2.1,1.9.1,2.5s.1,2.1,1.6,3.4a20.3,20.3,0,0,0,5.4,3l3.1,1.5,2.9,1.6a40.1,40.1,0,0,0,5.5,2.8,33.7,33.7,0,0,0,4.8,1.5,38.6,38.6,0,0,1,4.2,1.2,37.6,37.6,0,0,1,3.7,1.6l5,2a28.4,28.4,0,0,0,4.9,1c1.4.3,2.9.5,4.3.9l4.2,1.5,4.1,1.4h.6a25.2,25.2,0,0,0,5.4.8c1.4.2,2.7.3,4,.6l4.2,1.1a31.7,31.7,0,0,0,4.9,1.2,45,45,0,0,0,6.2.3h3.2l3.5.3a21.6,21.6,0,0,0,6.1.2c2.2-.2,2.5-.5,3.4-2a12.8,12.8,0,0,1,1.2-2.1l.7-.9a13,13,0,0,0,2.3-4.1,9.7,9.7,0,0,0,.4-3.1A24.6,24.6,0,0,1,254.4,742.6Z" transform="translate(-153.8 -702.4)"/><path class="cls-2" d="M161.3,707.9l.9-1.5v-.2a1.3,1.3,0,0,1-.1-.6h0c0-.1-.2-.3-.3-.4a1,1,0,0,0-1.2.4l-.2.3A3.7,3.7,0,0,0,161.3,707.9Z" transform="translate(-153.8 -702.4)"/><path class="cls-2" d="M254.6,730.6a.9.9,0,0,0-.9.8v1.4a2.4,2.4,0,0,0,1.7-1.5A.8.8,0,0,0,254.6,730.6Z" transform="translate(-153.8 -702.4)"/><path class="cls-3" d="M192.1,712.6a49.8,49.8,0,0,0-4.7-3.3,32.6,32.6,0,0,0-5.3-2.6A32.2,32.2,0,0,0,186,711a41.1,41.1,0,0,0,4.5,3.8l4.7,3.2a33,33,0,0,0,5.3,2.7,27.8,27.8,0,0,0-3.9-4.4A51.9,51.9,0,0,0,192.1,712.6Z" transform="translate(-153.8 -702.4)"/><path class="cls-3" d="M210.4,717.6a40.7,40.7,0,0,0-4.8-3.3,31.6,31.6,0,0,0-5.2-2.6,26.6,26.6,0,0,0,3.9,4.3,52,52,0,0,0,4.4,3.8l4.8,3.2a33,33,0,0,0,5.3,2.7,28.3,28.3,0,0,0-4-4.4A50.7,50.7,0,0,0,210.4,717.6Z" transform="translate(-153.8 -702.4)"/><path class="cls-3" d="M233.1,726.3a59.7,59.7,0,0,0-9.2-7,32.6,32.6,0,0,0-5.3-2.6,32.8,32.8,0,0,0,4,4.3,52,52,0,0,0,4.4,3.8,57.2,57.2,0,0,0,4.8,3.2,32,32,0,0,0,5.2,2.7A23.6,23.6,0,0,0,233.1,726.3Z" transform="translate(-153.8 -702.4)"/><path class="cls-2" d="M169.6,732.6l-.7-.4-2.4-1.1a12.7,12.7,0,0,0-1.8-.6,4.7,4.7,0,0,1-2-.6,6.5,6.5,0,0,1-1.6-1.3,7.4,7.4,0,0,0-1.3-1.2.5.5,0,0,0-.7.1.6.6,0,0,0,.1.8,5.3,5.3,0,0,1,1.2,1,6.9,6.9,0,0,0,1.8,1.6l2.3.7,1.5.4,2.5,1.2.8.4h.2a.6.6,0,0,0,.7-.3C170.3,732.9,169.9,732.7,169.6,732.6Z" transform="translate(-153.8 -702.4)"/><path class="cls-2" d="M224.9,750.2h-.8l-2.6-.5a4,4,0,0,0-1.9-.1,6.8,6.8,0,0,1-2-.2,5.5,5.5,0,0,1-1.9-.9,8,8,0,0,0-1.6-.8.5.5,0,0,0-.3.9l1.4.8a6.8,6.8,0,0,0,2.1,1h0a6.5,6.5,0,0,0,2.4.2h1.6l2.6.5.9.2h.3a.5.5,0,0,0,.5-.5C225.7,750.4,225.2,750.3,224.9,750.2Z" transform="translate(-153.8 -702.4)"/><path class="cls-2" d="M202.2,732.6a8.3,8.3,0,0,1-1.8-.7,7.6,7.6,0,0,0-1.8-.9l-2.1-.2-1.8-.2-2.7-1-.7-.2c-.3-.1-.7-.3-.9.2a.7.7,0,0,0,.2.7h.3l.8.3,2.7.9a4.4,4.4,0,0,0,2,.3l1.9.2,1.6.8,1.8.8h.3a.6.6,0,0,0,.6-.5A.6.6,0,0,0,202.2,732.6Z" transform="translate(-153.8 -702.4)"/></g></svg>