<svg id="Camada_7" data-name="Camada 7" xmlns="http://www.w3.org/2000/svg" viewBox="0 0 337 155.5">
  <defs>
    <style>
      .cls-1, .cls-2 {
        fill: #ee5157;
      }

      .cls-2 {
        font-size: 34.25px;
        font-family: Poppins-Bold, Poppins;
        font-weight: 700;
      }
    </style>
  </defs>
  <title>nome</title>
  <g>
    <path class="cls-1" d="M735.9,586.6a4.2,4.2,0,0,1-4.2-4.2V503.5a11,11,0,0,0-3.3-7.4,11.6,11.6,0,0,0-16.4,0,11.5,11.5,0,0,0,0,16.3,4.2,4.2,0,0,1-5.9,5.9,19.9,19.9,0,0,1,28.2-28.2,19.6,19.6,0,0,1,5.8,13.1v79.2A4.2,4.2,0,0,1,735.9,586.6Z" transform="translate(-700.3 -484)"/>
    <path class="cls-1" d="M772,586.9a4.2,4.2,0,0,1-4.2-4.2V490.1a4.2,4.2,0,0,1,4.2-4.2,4.2,4.2,0,0,1,4.2,4.2v92.6A4.2,4.2,0,0,1,772,586.9Z" transform="translate(-700.3 -484)"/>
    <path class="cls-1" d="M736.3,541.5a4.2,4.2,0,1,1-.1-8.3l35.7-1a4.2,4.2,0,0,1,4.3,4.1,4.3,4.3,0,0,1-4.1,4.3l-35.7.9Z" transform="translate(-700.3 -484)"/>
    <path class="cls-1" d="M805.4,587.8c-11.5,0-21-9.2-21-20.5V514.2a4.2,4.2,0,0,1,4.2-4.2,4.2,4.2,0,0,1,4.2,4.2v53.1a12.6,12.6,0,0,0,25.2,0V514.2a4.2,4.2,0,1,1,8.4,0v53.1A20.8,20.8,0,0,1,805.4,587.8Z" transform="translate(-700.3 -484)"/>
    <path class="cls-1" d="M871.4,587.8a4.2,4.2,0,0,1-4.2-4.2V531.3c0-6.5-5.6-11.8-12.5-11.8s-12.6,5.3-12.6,11.8v52.3a4.2,4.2,0,1,1-8.4,0V531.3c0-11.1,9.4-20.2,21-20.2s20.9,9.1,20.9,20.2v52.3A4.2,4.2,0,0,1,871.4,587.8Z" transform="translate(-700.3 -484)"/>
    <path class="cls-1" d="M955.9,587.8a4.2,4.2,0,0,1-4.2-4.2V530.9c0-11.2,9.4-20.3,21-20.3s21,9.1,21,20.3a4.2,4.2,0,1,1-8.4,0c0-6.6-5.7-11.9-12.6-11.9s-12.6,5.3-12.6,11.9v52.7A4.2,4.2,0,0,1,955.9,587.8Z" transform="translate(-700.3 -484)"/>
    <path class="cls-1" d="M906.4,543.3A29.7,29.7,0,1,1,936,513.7,29.7,29.7,0,0,1,906.4,543.3Zm0-50.9a21.3,21.3,0,1,0,21.3,21.3A21.3,21.3,0,0,0,906.4,492.4Z" transform="translate(-700.3 -484)"/>
    <path class="cls-1" d="M895.8,619.9h-.1c-6.5,0-12.1-3.1-14.9-8.1-1.9-3.4-4.2-10.6,2.1-21.1,9.6-16,26.3-33,41.5-46.5,1.2-9.3,2.3-19.4,3.3-30.6a4.2,4.2,0,0,1,4.5-3.8,4.1,4.1,0,0,1,3.8,4.5c-.6,7.7-1.3,14.8-2.1,21.6,12.6-10.7,22.5-18,23.5-18.6a4.2,4.2,0,1,1,4.9,6.7c-.3.2-14.1,10.3-30.1,24.4-3.9,27.5-9.4,46.5-17.1,59.8C910.9,615.5,903.7,619.9,895.8,619.9Zm26.5-62.4c-12.4,11.7-24.7,25-32.2,37.5-3,5.1-3.8,9.6-2,12.6s4.2,3.9,7.6,3.9h.1c4.8,0,9.3-2.8,12-7.5C913.9,593.4,918.7,578.3,922.3,557.5Z" transform="translate(-700.3 -484)"/>
    <path class="cls-1" d="M989.5,588.6a4.3,4.3,0,0,1-2.2-.6,4.1,4.1,0,0,1-1.4-5.7l43.6-73.9a4.2,4.2,0,0,1,7.2,4.3l-43.6,73.9A4.2,4.2,0,0,1,989.5,588.6Z" transform="translate(-700.3 -484)"/>
    <path class="cls-1" d="M1008.5,556.7l-1.5-.2a4.2,4.2,0,0,1-2.4-5.5c2.5-6.6,5.6-22.4-.9-34.5-4-7.5-11.2-12.4-21.3-14.7a4.2,4.2,0,0,1-3.2-5,4.2,4.2,0,0,1,5-3.2c12.6,2.8,21.7,9.2,26.9,18.9,7.9,14.8,4.6,33.1,1.3,41.5A4.1,4.1,0,0,1,1008.5,556.7Z" transform="translate(-700.3 -484)"/>
  </g>
  <text class="cls-2" transform="translate(31.3 134.8)">BURGER</text>
</svg>
