<svg id="Camada_11" data-name="Camada 11" xmlns="http://www.w3.org/2000/svg" viewBox="0 0 114.2 84.9"><defs><style>.cls-1{fill:#ea5158;}.cls-2{fill:#f5f5f5;}.cls-3{fill:#ce3c4e;}</style></defs><title>pao</title><path class="cls-1" d="M153.4,663.9H153c-2,6.8-.6,10.7,1.4,14.8a15.8,15.8,0,0,0,14.7,8.9c9.9-.2,25.5-2.3,41.8-5.6s30-6.9,39.4-10.4a16,16,0,0,0,10.4-15.8,25.5,25.5,0,0,0-4-12.6c-4.4,6.4-31.2,13.8-50.2,17.6S159.9,668.1,153.4,663.9Z" transform="translate(-148.3 -604.6)"/><path class="cls-2" d="M255.8,643.3c-8.3,4.8-31.8,13.1-50.9,16.9s-41.6,4.9-51.5,3.7c6.5,4.2,34.2.7,53.1-3.1s45.8-11.2,50.2-17.6c-.1-.2-.2-.3-.2-.4Z" transform="translate(-148.3 -604.6)"/><path class="cls-2" d="M257.6,641.3a1.6,1.6,0,0,1-.4.7,3.1,3.1,0,0,1-.5,1.2,25.5,25.5,0,0,1,4,12.6,16,16,0,0,1-10.4,15.8c-9.4,3.5-23.7,7.3-39.4,10.4s-31.9,5.4-41.8,5.6a15.8,15.8,0,0,1-14.7-8.9c-2-4.1-3.4-8-1.4-14.8a5.2,5.2,0,0,1-1.6-.6c-2.3,7.5-.7,11.8,1.4,16.2a17.6,17.6,0,0,0,16.4,9.9c9.9-.2,25.6-2.3,42.1-5.6s30.1-7,39.6-10.5a17.9,17.9,0,0,0,11.5-17.6C262.2,651.7,261.4,647.3,257.6,641.3Z" transform="translate(-148.3 -604.6)"/><path class="cls-2" d="M256.7,643.2a3.1,3.1,0,0,0,.5-1.2l-.7.8C256.5,642.9,256.6,643,256.7,643.2Z" transform="translate(-148.3 -604.6)"/><path class="cls-1" d="M152,661.3h0v-.2Z" transform="translate(-148.3 -604.6)"/><path class="cls-1" d="M255.4,641.2h0l-.2-.2Z" transform="translate(-148.3 -604.6)"/><path class="cls-1" d="M153.3,662h.4l-1.7-.6v.2Z" transform="translate(-148.3 -604.6)"/><path class="cls-1" d="M255.2,640.9l.2.2a2.5,2.5,0,0,0,.8-1.2l-1.1.8Z" transform="translate(-148.3 -604.6)"/><path class="cls-1" d="M256.4,636.8c-3.4-10.5-11.4-19.3-22.7-24.7s-25-7-38.5-4.3c-27.2,5.5-46.6,27.1-45.1,50.2a4.2,4.2,0,0,0,1.9,3.4h0l1.7.6h.2c8.9,1,31.9.1,50.7-3.7a227.2,227.2,0,0,0,25.2-6.7l4.4-1.5c9.3-3.2,17-6.4,20.7-8.6l.5-.3-.2-.3v-.2l1.1-.8.2-.3A5.3,5.3,0,0,0,256.4,636.8ZM233,618.6a2.3,2.3,0,0,1,3.5,0,2.9,2.9,0,0,1,.2,3.8,2.5,2.5,0,0,1-3.6.1A3,3,0,0,1,233,618.6Zm-5.7-3.3a1.6,1.6,0,0,1,2.5,0,1.9,1.9,0,0,1,.1,2.7,1.6,1.6,0,0,1-2.5,0A2.1,2.1,0,0,1,227.3,615.3Zm-1.8,6.3a3.2,3.2,0,0,1,4.7-1.1,4.1,4.1,0,0,1,1.1,5.2,3,3,0,0,1-4.6,1A4,4,0,0,1,225.5,621.6Z" transform="translate(-148.3 -604.6)"/><path class="cls-2" d="M150.1,658c-1.5-23.1,17.9-44.7,45.1-50.2,13.5-2.7,27.1-1.2,38.5,4.3s19.3,14.2,22.7,24.7a5.3,5.3,0,0,1,0,2.8.1.1,0,0,0,.1.1h.1v.2a1,1,0,0,0,.4.5l.5.9a6.4,6.4,0,0,0,.4-5.1c-3.5-11-11.9-20.2-23.6-25.9s-25.8-7.2-39.6-4.4a62.2,62.2,0,0,0-34.5,19.3c-8.4,9.6-12.7,21.3-12,32.9a6.8,6.8,0,0,0,3.1,5.2l.6-1.9A4.2,4.2,0,0,1,150.1,658Z" transform="translate(-148.3 -604.6)"/><path class="cls-2" d="M153.2,663.9h.2l-.3-.2v.2Z" transform="translate(-148.3 -604.6)"/><path class="cls-2" d="M254.9,641.5c-3.7,2.2-11.4,5.4-20.7,8.6a3.4,3.4,0,0,1-2.2,1.3h0l-2.2.2a227.2,227.2,0,0,1-25.2,6.7c-18.8,3.8-41.8,4.7-50.7,3.7.6,1,4.3,2.4,15.3,2s23.2-2.2,37-4.9a254.1,254.1,0,0,0,35.9-9.8c11-4.1,13.6-6.9,13.4-7.9h-.1Z" transform="translate(-148.3 -604.6)"/><path class="cls-2" d="M204.9,660.2c19.1-3.8,42.6-12.1,50.9-16.9l.7-.5-1-1.5h0c.2,1-2.4,3.8-13.4,7.9a254.1,254.1,0,0,1-35.9,9.8c-13.8,2.7-26.9,4.5-37,4.9s-14.7-1-15.3-2h-.2a17.7,17.7,0,0,0-.6,1.7l.3.2C163.3,665.1,186.8,663.9,204.9,660.2Z" transform="translate(-148.3 -604.6)"/><path class="cls-2" d="M256.5,639.7a.1.1,0,0,1-.1-.1l-.2.3Z" transform="translate(-148.3 -604.6)"/><path class="cls-2" d="M256.6,639.7h-.1l.2.2Z" transform="translate(-148.3 -604.6)"/><path class="cls-2" d="M153.1,663.7a2.7,2.7,0,0,1-1.1-1.5v-.7h0l-.6,1.9a5.2,5.2,0,0,0,1.6.6Z" transform="translate(-148.3 -604.6)"/><path class="cls-2" d="M257.3,641a3.8,3.8,0,0,1-.1,1,1.6,1.6,0,0,0,.4-.7l-.5-.9A1.4,1.4,0,0,0,257.3,641Z" transform="translate(-148.3 -604.6)"/><path class="cls-2" d="M255.5,641.3v-.2h.1Z" transform="translate(-148.3 -604.6)"/><path class="cls-2" d="M153.3,662h0l-1.3-.5v.7a2.7,2.7,0,0,0,1.1,1.5,17.7,17.7,0,0,1,.6-1.7Z" transform="translate(-148.3 -604.6)"/><path class="cls-2" d="M257.1,640.4a1,1,0,0,1-.4-.5l-.2-.2-.3.2a2.5,2.5,0,0,1-.8,1.2v.2l1,1.5.7-.8a3.8,3.8,0,0,0,.1-1A1.4,1.4,0,0,1,257.1,640.4Z" transform="translate(-148.3 -604.6)"/><path class="cls-2" d="M232,651.4h0a3.4,3.4,0,0,0,2.2-1.3l-4.4,1.5Z" transform="translate(-148.3 -604.6)"/><path class="cls-3" d="M236.7,622.4a2.9,2.9,0,0,0-.2-3.8,2.3,2.3,0,0,0-3.5,0,3,3,0,0,0,.1,3.9A2.5,2.5,0,0,0,236.7,622.4Z" transform="translate(-148.3 -604.6)"/><path class="cls-3" d="M229.9,618a1.9,1.9,0,0,0-.1-2.7,1.6,1.6,0,0,0-2.5,0,2.1,2.1,0,0,0,.1,2.7A1.6,1.6,0,0,0,229.9,618Z" transform="translate(-148.3 -604.6)"/><path class="cls-3" d="M231.3,625.7a4.1,4.1,0,0,0-1.1-5.2,3.2,3.2,0,0,0-4.7,1.1,4,4,0,0,0,1.2,5.1A3,3,0,0,0,231.3,625.7Z" transform="translate(-148.3 -604.6)"/></svg>